<svg id="OBJECTS" xmlns="http://www.w3.org/2000/svg" viewBox="0 0 467.24 394.1"><defs><style>.cls-1{fill:#3e3e3e;}</style></defs><title>Octopus</title><path class="cls-1" d="M410.14,352.66c-.23-.08,3.2-1.52,7.43-4.05,7.15-4.3,8.44-7.77,11.31-12.33C419.76,338.81,413.34,344.55,410.14,352.66Z" transform="translate(-17.29 -63.5)"/><path class="cls-1" d="M194.29,298.85c-4.5-9.45-2-21.16-17.78-33.77a31.13,31.13,0,0,0-6.64-4.27c-1.89,1.83-3.84,3.62-5.81,5.43-3.71,3.4-8,6.87-11.71,11a60.91,60.91,0,0,0-6.14,8c6.84,2.79,12.37,5.55,14.31,7.82,5.41,6.3,3.61,16.66,8.11,23.86a16,16,0,0,0,4.73,5.17c10.83-3.95,19.29-11.8,25-18.67C196.54,302.65,195.65,301.7,194.29,298.85ZM174.9,309.76a16.34,16.34,0,0,1-2.29-4.69,75.35,75.35,0,0,1-2.1-9.9,29.17,29.17,0,0,0-2.77-9.14,21.87,21.87,0,0,0-6.58-7.07A16,16,0,0,1,169.4,285a23.61,23.61,0,0,1,3.51,9.76c.53,3.33.89,6.62,1.5,9.82a18.87,18.87,0,0,0,1.48,4.56c.69,1.45,1.72,2.82,2.52,4.31A31.65,31.65,0,0,1,174.9,309.76Z" transform="translate(-17.29 -63.5)"/><path class="cls-1" d="M135.31,119.2c-11.29-1.56-17.17,5.79-18,12.16-1,7.65,3.6,13.5,6.75,12.6s-1.8-6.75.9-12.15,16.21-5.41,18,5.85-6.3,17.56-28.36,32.42S78.35,205.2,79.7,232.67s18,35.79,30.17,39.84c1.67.56,2.45.88,4.78,1.64,5.84-9.14,14.19-15.2,22-21.11-5.26-1.31-10.09-3.17-14-6.42-13.51-11.25-22.51-34.67-8.1-56.73s32.87-21.16,40.07-36.92S148.37,121,135.31,119.2ZM93.54,229.61c-.21.54-.58,1.13-1.16,1.17a1.55,1.55,0,0,1-1.11-.55,6.83,6.83,0,0,1-2.2-4.72c0-1.79,2.25-6.61,4-3.46A9,9,0,0,1,93.54,229.61Zm4.23-28a11,11,0,0,1-2.44,5.88,1.63,1.63,0,0,1-1,.61,1.52,1.52,0,0,1-1.28-1,4.9,4.9,0,0,1-.08-4,7.12,7.12,0,0,1,2.87-3.42C97.29,198.9,98,200.2,97.77,201.59Zm8.89-15a20.08,20.08,0,0,1-3.29,3.6,2.84,2.84,0,0,1-1.1.69,1.07,1.07,0,0,1-1.17-.35,1.51,1.51,0,0,1-.16-.81,5.82,5.82,0,0,1,1.7-4,4.66,4.66,0,0,1,3.44-1.38C107.37,184.47,107.31,185.65,106.66,186.57Z" transform="translate(-17.29 -63.5)"/><path class="cls-1" d="M218.07,357.06c-1.14-1.87-2.08-2-3-2a23.06,23.06,0,0,0-5.9,1.38c-1.15.36-2.37.74-3.65,1.09-.59.16-1.29.36-2.08.6a111.14,111.14,0,0,1-21.24,4.52c-2.75,7.32-7.29,16.11-15.36,21.33-15.31,9.91-25.22.9-25.22-15.31,0-3.09.23-6.92.46-11.23-29.77-10.71-43.72-38.11-33.83-69.25.21-.68.46-1.33.7-2C87,275.63,58.38,274.81,32.43,302.34c-32.58,34.56-7.06,89.39,24.65,90.17,27.69.67,33.94-23.3,28.7-37-6.18-16.16-9.45-8.95-6.92-3,3.62,8.44,3.88,18.74-5.74,24.15-12.29,6.9-31.91.56-36-21.05s10.36-50.88,41.43-47.28,36.47,36.47,34.22,57.18-7.43,53.92,30.39,63.83,61.46-24.21,70.46-44.47c1.19-2.67,2.29-5.32,3.29-7.91C218.22,368.82,219.57,359.51,218.07,357.06ZM32.83,327.32A13.67,13.67,0,0,1,31,331a2,2,0,0,1-1.32,1,1.38,1.38,0,0,1-1.24-.69A3.72,3.72,0,0,1,28,329.9a10.23,10.23,0,0,1,.12-4.27,5.21,5.21,0,0,1,2.55-3.32,2.25,2.25,0,0,1,1.54-.26C33.89,322.47,33.2,326.14,32.83,327.32Zm14-20.81a11.86,11.86,0,0,1-4.14,4.36c-.95.6-2.21,1.1-3.15.48a2.11,2.11,0,0,1-.85-1.84,4.34,4.34,0,0,1,.68-2A11.76,11.76,0,0,1,44.3,303C46.83,301.7,48,304.51,46.83,306.51Zm20.19-9a9.06,9.06,0,0,1-7.13.38c-.59-.2-1.24-.54-1.35-1.16a1.59,1.59,0,0,1,.22-1c1.36-2.59,5.06-3.22,7.63-2.53,1.07.29,2.21,1,2.25,2.12A2.65,2.65,0,0,1,67,297.53ZM189.39,406.29A40.57,40.57,0,0,1,176.82,415a46.67,46.67,0,0,1-14.77,3.86,40.4,40.4,0,0,1-15-1.36,64.53,64.53,0,0,0,14.74-.85,58,58,0,0,0,13.89-4.25,48.71,48.71,0,0,0,12.2-7.72,38.82,38.82,0,0,0,9-11.5A28.76,28.76,0,0,1,189.39,406.29Zm19-29.07a10.77,10.77,0,0,1-1.11,2.68,9.44,9.44,0,0,1-1.86,2.27,7.32,7.32,0,0,1-2.56,1.56A13.66,13.66,0,0,1,203.9,381a26.71,26.71,0,0,1,1.26-2.37,20.56,20.56,0,0,1,1.5-2.26,9.92,9.92,0,0,1,2-2.12A8.89,8.89,0,0,1,208.38,377.22Z" transform="translate(-17.29 -63.5)"/><path class="cls-1" d="M433.69,316.22Z" transform="translate(-17.29 -63.5)"/><path class="cls-1" d="M479.19,332.74C471,314.84,449.06,296,421.79,303c-27.69,7.09-38.13,24.25-40.19,46.94-2.7,29.71-12.16,45.59-28,34.1-9.25-6.69-14.48-20.73-17.24-31.27-6-.84-12.09-1.51-18-1.77-2.46-.1-4.88-.16-7.18-.16a119.87,119.87,0,0,0-15.07.89c14,4.48,23.61,20.52,30.83,37.38,8.11,18.91,20.86,41.54,52,34.11,29.72-7.09,24-46.94,26.34-63.15s15.2-32.08,36.81-24.65,24.68,26.49,16.38,37.14c-7.77,10-17.06,6.08-17.9.17-.89-6.24,6.76-6.61,4.22-9.28-3.13-3.3-12.26,4.84-10.81,14.85,1.69,11.65,17.9,22.46,34.79,10.64C487.72,375.67,487.41,350.63,479.19,332.74ZM377.56,414.46a26.74,26.74,0,0,1-10.74,1.77,30.45,30.45,0,0,1-10.59-2.41,20.43,20.43,0,0,1-4.69-2.78,9.13,9.13,0,0,1-3.15-4.35,10.57,10.57,0,0,0,3.83,3.37,25.67,25.67,0,0,0,4.68,2,39.45,39.45,0,0,0,10,1.74,32.69,32.69,0,0,0,10-1.11,26.05,26.05,0,0,0,9-5A18.66,18.66,0,0,1,377.56,414.46Zm33.43-89a9.55,9.55,0,0,1-2.31,2.79A11.36,11.36,0,0,1,406,330.1a3.85,3.85,0,0,1-2.36.48,1.81,1.81,0,0,1-1.41-1.54,4.58,4.58,0,0,1,.32-2.13,9.79,9.79,0,0,1,1.22-2.22c1.31-1.87,4.25-4.48,6.61-2.73A2.84,2.84,0,0,1,411,325.48Zm22.14-7.13a10.15,10.15,0,0,1-6.65.94,3.44,3.44,0,0,1-1.55-.61,2.14,2.14,0,0,1,0-3.07,6.26,6.26,0,0,1,2.88-1.72,8.3,8.3,0,0,1,5.84.45,2.57,2.57,0,0,1,1.23,1l0,.05C435.58,316.69,434.11,317.81,433.13,318.35Zm23.37,5.7c-2.24,2.35-5.79-.14-7.73-1.64a4.16,4.16,0,0,1-1.43-1.74,2.47,2.47,0,0,1,1.13-2.95,4.61,4.61,0,0,1,2.6-.57,7.63,7.63,0,0,1,4.9,2.58C457,320.89,457.73,322.74,456.5,324.05Z" transform="translate(-17.29 -63.5)"/><path class="cls-1" d="M466.87,197.32c-4.73-15.53-31.69-29.49-53.3-4.28s-13.06,50.88-13.51,70.24-3.15,39.63-25.66,48.18-47.28-3.6-67.09-20.26c-12-10.07-15.72-20.62-16.81-27.4l.16-.07,7.66-2.7c7.65-2.7,19.81-13.06,19.36-29.72s-12.61-14.85-12.61-14.85,35.15-77.61,15.31-114.82c-11-20.61-31.55-33.38-54.24-37.19-22.92-3.85-48.51,4.26-65,20.66a69.33,69.33,0,0,0-12.23,16.53c-19.84,37.21,15.31,114.82,15.31,114.82s-12.16-1.81-12.61,14.85S203.3,258.33,211,261l7.07,2.5a57.67,57.67,0,0,1-8.31,31.38c-11.48,19.25-33.09,38.16-59.09,32.42s-15.87-35.79-.68-52.34,31.33-23.61,33.77-48.63c2.7-27.69-20.71-37.26-39-34.22s-20.48,18.91-19.13,27.13c1.51,9.17,6.42,16.21,10.8,14.18s-2.25-6.64-1.57-18.12,10.36-18,19.81-12.27,14.41,19.7,3.72,35.46c-8.83,13-36.81,22.29-45.93,51-8.72,27.46.67,54,30.73,64.84s54,2,61.46,0,12.49-5.07,16.21,1c3.53,5.78-2.41,26.85-3.28,42,0,.2-.07.39-.1.58-3.15,21.84,1.33,45.65,27.69,56.06,25.67,10.13,53.4-2.09,66.64-21.84C324,414,319.63,390.31,309,379c-8-8.53-22.85-14.41-35.12-3.72-11.53,10.05-5.74,22-2.37,24s4-1.33,2.59-5.51c-2.7-8.22,7-16.94,18.69-13.17,12.6,4.05,14.52,19.69,9.12,29.49s-19.59,17.9-35.46,11.48c-11.35-4.59-16.29-15.22-17.08-25.84-.31-1.71-.58-3.42-.77-5.15A58.8,58.8,0,0,1,252.48,363c3.53-9.1,9-17.57,17.3-22.95.34-.22.65.32.32.55a40.58,40.58,0,0,0-10.89,12.25,61.48,61.48,0,0,0-8.91,27.88c-.06.94-.08,1.88-.08,2.83a.5.5,0,0,1,0-.12,32.17,32.17,0,0,1,2.08-6.09l.06-.1c.78-1.64,1.62-3.24,2.54-4.79.07-.12.14-.25.22-.37l.25-.41a60.44,60.44,0,0,1,7-8.83c10.26-10.09,26.87-16.31,56.09-15,20,.87,40.78,6.21,59.29,7.39.22-1.77.44-3.58.61-5.49,2.43-26.79,13.61-44.28,42.63-49.8a66.88,66.88,0,0,1,12.42-1.6l.75,0a114.4,114.4,0,0,0-3.47-21.49c-5.85-23-18.07-51.05-10.41-68.16s22.78-24.4,34.72-13.79c10.13,9-.81,21.33,4.52,23.32C464,219.81,469.44,205.75,466.87,197.32ZM167.74,236.74c.57-1.66.47-1.3,1.08-2.94a5.21,5.21,0,0,1,1.05-1.92,1.73,1.73,0,0,1,2-.4,2.33,2.33,0,0,1,.83,2.15,7.81,7.81,0,0,1-.88,3.72c-.74,1.58-3.63,4.5-4.61,2.42C166.83,239,167.48,237.49,167.74,236.74Zm-15.25,16.72a9.77,9.77,0,0,1,2.42-3.13,10.11,10.11,0,0,1,2.21-1.65c1.95-1,4.17-.5,3.36,2.09a6.46,6.46,0,0,1-1.75,2.51,11.18,11.18,0,0,1-4.34,3,2.22,2.22,0,0,1-1.08.12,1.56,1.56,0,0,1-1.1-1.24A2.85,2.85,0,0,1,152.49,253.46Zm-18.56,17.9a8.16,8.16,0,0,1,2.86-4.89c1.51-1.24,6.23-3.46,6.38,0a5,5,0,0,1-.56,2.27,13.14,13.14,0,0,1-3.83,4.85,5.26,5.26,0,0,1-2,1.08,2.46,2.46,0,0,1-2.18-.48A3.12,3.12,0,0,1,133.93,271.36ZM229.55,220a31.49,31.49,0,0,1,12.7,11.55,67.6,67.6,0,0,0-6.59-5.27,52.84,52.84,0,0,0-7.16-4.15,79,79,0,0,0-7.69-3.07c-2.62-.92-5.29-1.65-8.09-2.36a23.55,23.55,0,0,1,8.65.34A33.24,33.24,0,0,1,229.55,220Zm-19.5-29a62,62,0,0,1-2.07-5.87,60.43,60.43,0,0,1-2.32-12.24,34.05,34.05,0,0,1,2.68,5.67c.76,1.94,1.39,3.9,2,5.88s1.1,4,1.54,6,.8,4,1.22,6.11A22.32,22.32,0,0,1,210.05,191Zm-6.28-74.14c-.4,1.72-.58,3.49-.83,5.25a139.11,139.11,0,0,0-1.12,21.35c.15,7.18.76,14.39,1.48,21.72A86.47,86.47,0,0,1,198,143.68a87.53,87.53,0,0,1,.09-22.29c.3-1.85.53-3.71,1-5.53a49.06,49.06,0,0,1,1.39-5.46,52.51,52.51,0,0,1,1.89-5.32l1.08-2.61c.39-.86.87-1.68,1.31-2.51,3.5-6.65,8.58-12.62,15-16.33a56.83,56.83,0,0,0-11.53,18c-.32.82-.69,1.62-1,2.46l-.83,2.51a49.34,49.34,0,0,0-1.46,5.09C204.45,113.33,204.13,115.08,203.77,116.81Zm6.42,130.71c-10.93-5.24-11.48-19.52.34-21.37s30.95,21.6,30.95,21.6S225.92,255.07,210.19,247.52Zm21.44,35.22a58.19,58.19,0,0,1-2.85,11.53,47.46,47.46,0,0,1-5.41,10.62,30.28,30.28,0,0,1-8.36,8.37,51.32,51.32,0,0,0,6.74-9.39,68.57,68.57,0,0,0,4.73-10.44,96.67,96.67,0,0,0,3.28-11c.88-3.75,1.58-7.56,2.13-11.45A45.73,45.73,0,0,1,231.63,282.74Zm20.94,163.51a43.07,43.07,0,0,0,12.8,2,52.47,52.47,0,0,0,12.94-1.54,38.46,38.46,0,0,0,12.11-5.09,28,28,0,0,1-11.58,6.93,41.88,41.88,0,0,1-13.48,2.14A36.38,36.38,0,0,1,251.92,448a29.08,29.08,0,0,1-11-7.81A40.61,40.61,0,0,0,252.57,446.25Zm31.6-254.68c1.28-3.66,2.59-7.27,3.71-10.94s2.17-7.34,3.07-11.07,1.61-7.53,2.4-11.41a46.45,46.45,0,0,1,.11,11.84A60.55,60.55,0,0,1,291,181.61a76.56,76.56,0,0,1-4.48,11,82.9,82.9,0,0,1-6,10.15C281.55,198.9,282.88,195.23,284.17,191.57ZM278,218.73a80.74,80.74,0,0,1,14.07-5.07A121.52,121.52,0,0,0,297,200.54c1.54-4.7,2.82-9.5,4.16-14.27,2.53-9.6,4.83-19.27,6.77-29,1-4.86,1.82-9.75,2.56-14.64.21-1.22.33-2.44.49-3.67s.3-2.45.38-3.67a37.47,37.47,0,0,0,.17-7.25,69.51,69.51,0,0,0-2.76-14.46A57.51,57.51,0,0,0,303,99.84,50.7,50.7,0,0,1,310.32,113a64.58,64.58,0,0,1,4,14.7c.72,5.19.33,10.29,0,15.33s-1.15,10-1.91,15a274.52,274.52,0,0,1-6.66,29.46c-1.37,4.85-2.9,9.65-4.66,14.4a93.61,93.61,0,0,1-6.19,14l-.41.72-.72.16c-2.56.54-5.07,1-7.56,1.65s-4.94,1.36-7.35,2.21a42.34,42.34,0,0,0-13.42,7.5A37,37,0,0,1,278,218.73Zm-9.44,29s19.13-23.46,31-21.6,11.68,17.1.34,21.37C281.64,254.39,268.59,247.75,268.59,247.75Zm1.9,39.45a23.42,23.42,0,0,1-.67-5.12,49.11,49.11,0,0,1,1-10.13,67.66,67.66,0,0,1,.62,10.09,37.42,37.42,0,0,0,1.23,9.83A12.26,12.26,0,0,1,270.49,287.2Zm23,11a28.7,28.7,0,0,1-6.12-8.14,39.26,39.26,0,0,1-3.33-9.55,55.24,55.24,0,0,1-1.22-9.91c1.12,3.15,2,6.32,3.06,9.41a64.31,64.31,0,0,0,3.66,8.93,38.14,38.14,0,0,0,5.32,7.92,45.36,45.36,0,0,0,7.26,6.5A24.67,24.67,0,0,1,293.5,298.2Zm114.86-81.71a5.08,5.08,0,0,1,1.26-3.1,1.14,1.14,0,0,1,.32-.26l0,0,0,0,.05,0,.1,0a2.13,2.13,0,0,1,1.76.25A2.73,2.73,0,0,1,413,215a5.49,5.49,0,0,1-.66,3.86c-.64,1-2.14,2-3.22,1C408.23,219.11,408.22,217.59,408.36,216.49ZM410,233.73c3-.45,3.9,4.53,2.44,7A2.62,2.62,0,0,1,410.9,242C407.38,242.89,405.82,234.36,410,233.73Zm6.52,30.81a2.65,2.65,0,0,1-2.88,1.94,2.58,2.58,0,0,1-1.53-1.07,7.45,7.45,0,0,1-.84-6.49,3.72,3.72,0,0,1,1-1.7c1.17-1,2.46-.39,3.28.69a6.65,6.65,0,0,1,1.29,3A8.79,8.79,0,0,1,416.54,264.54Z" transform="translate(-17.29 -63.5)"/><path class="cls-1" d="M391.9,118c-11.12.67-16.86,9.59-13.22,11.59s7.14-7.87,17.1-4.16c8.22,3.06,10.59,16.77,1.13,24-10.53,8-19.81.9-41.87,3.6S324.42,175,330.72,202.05c6.24,26.75,26.12,36,12.16,62.13-8.72,16.32-20.79,24.55-28.61,28.43,11.3,8.68,26.45,17.46,42.13,18.3,10.35-9.09,22.39-23.83,27.9-39.07,7.66-21.16-5.85-48.18-20.26-62.14s-21.61-25.44-13.51-36.24c9.51-12.68,31.18-3.1,45-8.78,11.37-4.68,16-13.63,16.26-25.44C412.16,126.24,403.21,117.29,391.9,118Zm-18,132.21a9.94,9.94,0,0,1,1.88,3.14,13,13,0,0,1,.87,3.53,11.85,11.85,0,0,1-.15,3.66,7.89,7.89,0,0,1-1.47,3.4c-.2-1.25-.31-2.37-.43-3.49l-.38-3.31c-.12-1.11-.24-2.22-.3-3.36A22.3,22.3,0,0,1,373.89,250.17Zm-18.42,44.74c2.49-2.39,5-4.75,7.29-7.26a66.16,66.16,0,0,0,6.41-7.89,41.74,41.74,0,0,0,4.72-9.1,24.74,24.74,0,0,1-3.08,10.09,42,42,0,0,1-6.26,8.57,65.1,65.1,0,0,1-7.84,7,75.89,75.89,0,0,1-8.71,5.82C350.42,299.63,353,297.28,355.47,294.91ZM336.53,188.24c-1.49-1-1.43-3-1.09-4.53.3-1.33.87-3.53,2.47-3.81a2.39,2.39,0,0,1,2.27,1.15,5.17,5.17,0,0,1,.72,2.33,6.23,6.23,0,0,1-.78,4.08A2.66,2.66,0,0,1,336.53,188.24Zm10,23.66h0Zm.73-2.9a2.66,2.66,0,0,1-1.49,1.68c-1.65.61-2.73-1.28-3.4-2.45a11.64,11.64,0,0,1-1.42-3.77c-.26-1.45,0-3.54,2-3a3.92,3.92,0,0,1,.91.38,8.79,8.79,0,0,1,2.68,2.57A5.3,5.3,0,0,1,347.29,209Zm-3.52-40.53a2.18,2.18,0,0,1-.94-.27,2.07,2.07,0,0,1-.56-2.42,5.53,5.53,0,0,1,1-1.66c.81-.94,2.81-2.89,4.12-1.7a1.87,1.87,0,0,1,.53.9,4.44,4.44,0,0,1,.14,1.29A4.15,4.15,0,0,1,343.77,168.47Z" transform="translate(-17.29 -63.5)"/><polygon class="cls-1" points="328.29 146.12 328.3 146.12 328.3 146.12 328.29 146.12"/></svg>